<?xml version="1.0" encoding="UTF-8"?>
<svg viewBox="0 0 1000 1000" preserveAspectRatio="xMidYMid meet" xmlns="http://www.w3.org/2000/svg">
  <rect width="1000" height="1000" fill="#0a0a0a"/>
  <g transform="translate(100, 100) scale(0.8)">

  <!-- Dark background -->
  <!-- All shapes filled in Elite Dangerous orange -->
  <g fill="#FA9600" stroke="none">
  <!-- OUTER RING -->
  <path d="M 336.3,339.1 A 229.5,229.5 0 0,1 663.7,339.1 L 655.1,363.7 A 206.5,206.5 0 0,0 344.9,363.7 Z"/>
  <path d="M 647.2,676.1 A 229.5,229.5 0 0,1 352.8,676.1 L 360.4,652.2 A 206.5,206.5 0 0,0 639.6,652.2 Z"/>

  <!-- MIDDLE RING (gap at 180°) -->
  <path d="M 360.4,408.4 A 167.0,167.0 0 0,1 639.6,408.4 L 629.6,437.2 A 144.0,144.0 0 0,0 370.4,437.2 Z"/>
  <path d="M 626.1,609.5 A 167.0,167.0 0 0,1 519.0,665.9 L 519.0,642.7 A 144.0,144.0 0 0,0 617.6,583.0 Z"/>
  <path d="M 481.0,665.9 A 167.0,167.0 0 0,1 373.9,609.5 L 382.4,583.0 A 144.0,144.0 0 0,0 481.0,642.7 Z"/>

  <!-- INNER RING (full circle, gap at 270°) -->
  <path d="M 396.8,483.9 A 104.5,104.5 0 1,1 396.8,516.1 L 420.1,516.1 A 81.5,81.5 0 1,0 420.1,483.9 Z"/>

  <!-- VERTICAL CONNECTOR (mid to inner, top) -->
  <rect x="488.5" y="353.0" width="23" height="45.5"/>

  <!-- RADIAL CONNECTOR (mid to inner, bottom-right) -->
  <rect x="-11.5" y="-22.8" width="23" height="45.5" transform="translate(558.4,609.7) rotate(152.0)"/>

  <!-- CENTER DOT -->
  <circle cx="500" cy="500" r="42.0"/>

  <!-- Right wing -->
  <g transform="translate(31.32, 36.62) scale(2)">
    <g transform="matrix(0.427557, 0, 0, 0.427557, 81.181313, 139.319397)">
      <path d="M 861.578 -98.713 L 563.415 27.001 L 506.665 190.535 L 505.339 245.337 L 506.665 304.623 L 561.925 478.568 C 563.395 481.868 692.759 425.398 692.759 425.398 L 715.449 353.554 L 596.985 403.418 L 596.985 380.027 L 723.969 326.579 L 750.602 242.257 L 596.985 306.917 L 596.985 283.529 L 759.122 215.283 L 786.5 128.605 L 596.985 208.373 L 596.985 184.984 L 795.021 101.627 L 821.117 18.997 L 596.985 113.34 L 596.985 89.95 L 829.777 -8.038 L 861.578 -98.713 Z"/>
    </g>
  </g>

  <!-- Left wing (mirror) -->
  <g transform="translate(1000, 0) scale(-1, 1)">
    <g transform="translate(31.32, 36.62) scale(2)">
      <g transform="matrix(0.427557, 0, 0, 0.427557, 81.181313, 139.319397)">
        <path d="M 861.578 -98.713 L 563.415 27.001 L 506.665 190.535 L 505.339 245.337 L 506.665 304.623 L 561.925 478.568 C 563.395 481.868 692.759 425.398 692.759 425.398 L 715.449 353.554 L 596.985 403.418 L 596.985 380.027 L 723.969 326.579 L 750.602 242.257 L 596.985 306.917 L 596.985 283.529 L 759.122 215.283 L 786.5 128.605 L 596.985 208.373 L 596.985 184.984 L 795.021 101.627 L 821.117 18.997 L 596.985 113.34 L 596.985 89.95 L 829.777 -8.038 L 861.578 -98.713 Z"/>
      </g>
    </g>
  </g>
  </g>

  </g>
</svg>