<?xml version="1.0" encoding="UTF-8"?>
<svg viewBox="0 0 1000 1000" preserveAspectRatio="xMidYMid meet" xmlns="http://www.w3.org/2000/svg">
  <!-- Top arc — filled band, cuts angled to match wing inner edge -->
  <path d="M 336.3,339.1 A 229.5,229.5 0 0,1 663.7,339.1 L 655.2,363.7 A 206.5,206.5 0 0,0 344.8,363.7 Z" fill="#000"/>

  <!-- Bottom arc — filled band, cuts angled to match wing inner edge -->
  <path d="M 647.2,676.1 A 229.5,229.5 0 0,1 352.8,676.1 L 360.4,652.2 A 206.5,206.5 0 0,0 639.6,652.2 Z" fill="#000"/>

  <!-- 4-pointed star -->
  <g transform="translate(31.32, 36.62) scale(2)">
    <g transform="matrix(0.427557, 0, 0, 0.427557, 81.181313, 139.319397)">
      <path style="fill: rgb(0, 0, 0); stroke-width: 0.273px;" d="M 358.189 140.019 L 355.587 148.206 L 339.999 197.266 L 284.431 216.039 L 339.999 234.813 L 358.189 292.06 L 376.377 234.813 L 431.945 216.039 C 435.426 216.068 434.992 214.978 376.377 197.266 L 358.189 140.019 Z"/>
    </g>
  </g>

  <!-- Right wing -->
  <g transform="translate(31.32, 36.62) scale(2)">
    <g transform="matrix(0.427557, 0, 0, 0.427557, 81.181313, 139.319397)">
      <path style="fill: rgb(0, 0, 0);" d="M 861.578 -98.713 L 563.415 27.001 L 506.665 190.535 L 505.339 245.337 L 506.665 304.623 L 561.925 478.568 C 563.395 481.868 692.759 425.398 692.759 425.398 L 715.449 353.554 L 596.985 403.418 L 596.985 380.027 L 723.969 326.579 L 750.602 242.257 L 596.985 306.917 L 596.985 283.529 L 759.122 215.283 L 786.5 128.605 L 596.985 208.373 L 596.985 184.984 L 795.021 101.627 L 821.117 18.997 L 596.985 113.34 L 596.985 89.95 L 829.777 -8.038 L 861.578 -98.713 Z"/>
    </g>
  </g>

  <!-- Left wing — exact mirror of right wing around x=500 -->
  <g transform="translate(1000, 0) scale(-1, 1)">
    <g transform="translate(31.32, 36.62) scale(2)">
      <g transform="matrix(0.427557, 0, 0, 0.427557, 81.181313, 139.319397)">
        <path style="fill: rgb(0, 0, 0);" d="M 861.578 -98.713 L 563.415 27.001 L 506.665 190.535 L 505.339 245.337 L 506.665 304.623 L 561.925 478.568 C 563.395 481.868 692.759 425.398 692.759 425.398 L 715.449 353.554 L 596.985 403.418 L 596.985 380.027 L 723.969 326.579 L 750.602 242.257 L 596.985 306.917 L 596.985 283.529 L 759.122 215.283 L 786.5 128.605 L 596.985 208.373 L 596.985 184.984 L 795.021 101.627 L 821.117 18.997 L 596.985 113.34 L 596.985 89.95 L 829.777 -8.038 L 861.578 -98.713 Z"/>
      </g>
    </g>
  </g>
</svg>
