<svg xmlns="http://www.w3.org/2000/svg" xmlns:svg="http://www.w3.org/2000/svg" id="svg23" width="2543.325" height="517.864" preserveAspectRatio="xMidYMid" version="1.1" viewBox="0 0 2543.325 517.864"><g id="g12" fill="#fa9600" stroke="#fa9600" stroke-linejoin="round" stroke-width="6" transform="translate(-67.004799,-227.48131)"><path id="path1" fill="inherit" d="m 336.3,339.1 a 229.5,229.5 0 0 1 327.4,0 l -8.6,24.6 a 206.5,206.5 0 0 0 -310.2,0 z"/><path id="path2" fill="inherit" d="m 647.2,676.1 a 229.5,229.5 0 0 1 -294.4,0 l 7.6,-23.9 a 206.5,206.5 0 0 0 279.2,0 z"/><path id="path3" fill="inherit" d="m 360.4,408.4 a 167,167 0 0 1 279.2,0 l -10,28.8 a 144,144 0 0 0 -259.2,0 z"/><path id="path4" fill="inherit" d="M 626.1,609.5 A 167,167 0 0 1 519,665.9 V 642.7 A 144,144 0 0 0 617.6,583 Z"/><path id="path5" fill="inherit" d="M 481,665.9 A 167,167 0 0 1 373.9,609.5 l 8.5,-26.5 a 144,144 0 0 0 98.6,59.7 z"/><path id="path6" fill="inherit" d="m 396.8,483.9 a 104.5,104.5 0 1 1 0,32.2 h 23.3 a 81.5,81.5 0 1 0 0,-32.2 z"/><rect id="rect6" width="23" height="45.5" x="488.5" y="353" fill="inherit"/><rect id="rect7" width="23" height="45.5" x="-11.5" y="-22.8" fill="inherit" transform="rotate(152,203.19236,374.46238)"/><circle id="circle7" cx="500" cy="500" r="42" fill="inherit"/><g id="g8" transform="matrix(2,0,0,2,31.32,36.62)"><g id="g7" transform="matrix(0.427557,0,0,0.427557,81.181313,139.3194)"><path id="path7" fill="inherit" d="m 861.578,-98.713 -298.163,125.714 -56.75,163.534 -1.326,54.802 1.326,59.286 55.26,173.945 c 1.47,3.3 130.834,-53.17 130.834,-53.17 l 22.69,-71.844 -118.464,49.864 v -23.391 l 126.984,-53.448 26.633,-84.322 -153.617,64.66 V 283.529 L 759.122,215.283 786.5,128.605 596.985,208.373 V 184.984 L 795.021,101.627 821.117,18.997 596.985,113.34 V 89.95 L 829.777,-8.038 Z"/></g></g><g id="g11" transform="matrix(-1,0,0,1,1000,0)"><g id="g10" transform="matrix(2,0,0,2,31.32,36.62)"><g id="g9" transform="matrix(0.427557,0,0,0.427557,81.181313,139.3194)"><path id="path8" fill="inherit" d="m 861.578,-98.713 -298.163,125.714 -56.75,163.534 -1.326,54.802 1.326,59.286 55.26,173.945 c 1.47,3.3 130.834,-53.17 130.834,-53.17 l 22.69,-71.844 -118.464,49.864 v -23.391 l 126.984,-53.448 26.633,-84.322 -153.617,64.66 V 283.529 L 759.122,215.283 786.5,128.605 596.985,208.373 V 184.984 L 795.021,101.627 821.117,18.997 596.985,113.34 V 89.95 L 829.777,-8.038 Z"/></g></g></g></g><g id="g23" fill="#000" stroke="none" transform="translate(-67.004799,-227.48131)"><path id="path12" fill="inherit" d="m 336.3,339.1 a 229.5,229.5 0 0 1 327.4,0 l -8.6,24.6 a 206.5,206.5 0 0 0 -310.2,0 z"/><path id="path13" fill="inherit" d="m 647.2,676.1 a 229.5,229.5 0 0 1 -294.4,0 l 7.6,-23.9 a 206.5,206.5 0 0 0 279.2,0 z"/><path id="path14" fill="inherit" d="m 360.4,408.4 a 167,167 0 0 1 279.2,0 l -10,28.8 a 144,144 0 0 0 -259.2,0 z"/><path id="path15" fill="inherit" d="M 626.1,609.5 A 167,167 0 0 1 519,665.9 V 642.7 A 144,144 0 0 0 617.6,583 Z"/><path id="path16" fill="inherit" d="M 481,665.9 A 167,167 0 0 1 373.9,609.5 l 8.5,-26.5 a 144,144 0 0 0 98.6,59.7 z"/><path id="path17" fill="inherit" d="m 396.8,483.9 a 104.5,104.5 0 1 1 0,32.2 h 23.3 a 81.5,81.5 0 1 0 0,-32.2 z"/><rect id="rect17" width="23" height="45.5" x="488.5" y="353" fill="inherit"/><rect id="rect18" width="23" height="45.5" x="-11.5" y="-22.8" fill="inherit" transform="rotate(152,203.19236,374.46238)"/><circle id="circle18" cx="500" cy="500" r="42" fill="inherit"/><g id="g19" transform="matrix(2,0,0,2,31.32,36.62)"><g id="g18" transform="matrix(0.427557,0,0,0.427557,81.181313,139.3194)"><path id="path18" fill="inherit" d="m 861.578,-98.713 -298.163,125.714 -56.75,163.534 -1.326,54.802 1.326,59.286 55.26,173.945 c 1.47,3.3 130.834,-53.17 130.834,-53.17 l 22.69,-71.844 -118.464,49.864 v -23.391 l 126.984,-53.448 26.633,-84.322 -153.617,64.66 V 283.529 L 759.122,215.283 786.5,128.605 596.985,208.373 V 184.984 L 795.021,101.627 821.117,18.997 596.985,113.34 V 89.95 L 829.777,-8.038 Z"/></g></g><g id="g22" transform="matrix(-1,0,0,1,1000,0)"><g id="g21" transform="matrix(2,0,0,2,31.32,36.62)"><g id="g20" transform="matrix(0.427557,0,0,0.427557,81.181313,139.3194)"><path id="path19" fill="inherit" d="m 861.578,-98.713 -298.163,125.714 -56.75,163.534 -1.326,54.802 1.326,59.286 55.26,173.945 c 1.47,3.3 130.834,-53.17 130.834,-53.17 l 22.69,-71.844 -118.464,49.864 v -23.391 l 126.984,-53.448 26.633,-84.322 -153.617,64.66 V 283.529 L 759.122,215.283 786.5,128.605 596.985,208.373 V 184.984 L 795.021,101.627 821.117,18.997 596.985,113.34 V 89.95 L 829.777,-8.038 Z"/></g></g></g></g><text style="font-style:normal;font-variant:normal;font-weight:400;font-stretch:normal;font-size:373.333px;line-height:.8;font-family:'Euro Caps';-inkscape-font-specification:'Euro Caps';letter-spacing:0;word-spacing:0;writing-mode:lr-tb;direction:ltr;fill:#000;stroke:#fa9600;stroke-width:3;stroke-dasharray:none;stroke-opacity:1;fill-opacity:1" id="text2" x="898.284" y="217.698" xml:space="preserve"><tspan id="tspan2" x="898.284" y="217.698" style="font-size:373.333px;fill:#000;fill-opacity:1;stroke:#fa9600;stroke-width:3;stroke-dasharray:none;stroke-opacity:1">Daedalus</tspan><tspan id="tspan3" x="898.284" y="516.364" dx="0 -12.923" style="font-size:373.333px;fill:#000;fill-opacity:1;stroke:#fa9600;stroke-width:3;stroke-dasharray:none;stroke-opacity:1">Terminal</tspan></text></svg>