<?xml version="1.0" encoding="UTF-8" standalone="no"?>
<svg
   viewBox="0 0 2543.3247 517.86415"
   preserveAspectRatio="xMidYMid"
   version="1.1"
   id="svg23"
   sodipodi:docname="title-dark.svg"
   inkscape:version="1.4.3 (0d15f75, 2025-12-25)"
   width="2543.3247"
   height="517.86414"
   xmlns:inkscape="http://www.inkscape.org/namespaces/inkscape"
   xmlns:sodipodi="http://sodipodi.sourceforge.net/DTD/sodipodi-0.dtd"
   xmlns="http://www.w3.org/2000/svg"
   xmlns:svg="http://www.w3.org/2000/svg">
  <defs
     id="defs23" />
  <sodipodi:namedview
     id="namedview23"
     pagecolor="#ffffff"
     bordercolor="#000000"
     borderopacity="0.25"
     inkscape:showpageshadow="2"
     inkscape:pageopacity="0.0"
     inkscape:pagecheckerboard="0"
     inkscape:deskcolor="#d1d1d1"
     inkscape:zoom="1.815"
     inkscape:cx="1088.7052"
     inkscape:cy="469.14601"
     inkscape:window-width="3840"
     inkscape:window-height="2054"
     inkscape:window-x="3829"
     inkscape:window-y="-11"
     inkscape:window-maximized="1"
     inkscape:current-layer="svg23" />
  <!-- Dark background -->
  <!-- Orange border layer (rendered first, behind) -->
  <g
     fill="#fa9600"
     stroke="#fa9600"
     stroke-width="6"
     stroke-linejoin="round"
     id="g12"
     transform="translate(-67.004799,-227.48131)">
    <!-- OUTER RING -->
    <path
       d="m 336.3,339.1 a 229.5,229.5 0 0 1 327.4,0 l -8.6,24.6 a 206.5,206.5 0 0 0 -310.2,0 z"
       fill="inherit"
       id="path1" />
    <path
       d="m 647.2,676.1 a 229.5,229.5 0 0 1 -294.4,0 l 7.6,-23.9 a 206.5,206.5 0 0 0 279.2,0 z"
       fill="inherit"
       id="path2" />
    <!-- MIDDLE RING (gap at 200°) -->
    <path
       d="m 360.4,408.4 a 167,167 0 0 1 279.2,0 l -10,28.8 a 144,144 0 0 0 -259.2,0 z"
       fill="inherit"
       id="path3" />
    <path
       d="M 626.1,609.5 A 167,167 0 0 1 519,665.9 V 642.7 A 144,144 0 0 0 617.6,583 Z"
       fill="inherit"
       id="path4" />
    <path
       d="M 481,665.9 A 167,167 0 0 1 373.9,609.5 l 8.5,-26.5 a 144,144 0 0 0 98.6,59.7 z"
       fill="inherit"
       id="path5" />
    <!-- INNER RING (full circle, gap at 270°) -->
    <path
       d="m 396.8,483.9 a 104.5,104.5 0 1 1 0,32.2 h 23.3 a 81.5,81.5 0 1 0 0,-32.2 z"
       fill="inherit"
       id="path6" />
    <!-- VERTICAL CONNECTOR (mid to inner, top) -->
    <rect
       x="488.5"
       y="353"
       width="23"
       height="45.5"
       fill="inherit"
       id="rect6" />
    <!-- RADIAL CONNECTOR (mid to inner, bottom-right) -->
    <rect
       x="-11.5"
       y="-22.799999"
       width="23"
       height="45.5"
       transform="rotate(152,203.19236,374.46238)"
       fill="inherit"
       id="rect7" />
    <!-- CENTER DOT -->
    <circle
       cx="500"
       cy="500"
       r="42"
       fill="inherit"
       id="circle7" />
    <g
       transform="matrix(2,0,0,2,31.32,36.62)"
       id="g8">
      <g
         transform="matrix(0.427557,0,0,0.427557,81.181313,139.3194)"
         id="g7">
        <path
           fill="inherit"
           d="m 861.578,-98.713 -298.163,125.714 -56.75,163.534 -1.326,54.802 1.326,59.286 55.26,173.945 c 1.47,3.3 130.834,-53.17 130.834,-53.17 l 22.69,-71.844 -118.464,49.864 v -23.391 l 126.984,-53.448 26.633,-84.322 -153.617,64.66 V 283.529 L 759.122,215.283 786.5,128.605 596.985,208.373 V 184.984 L 795.021,101.627 821.117,18.997 596.985,113.34 V 89.95 L 829.777,-8.038 Z"
           id="path7" />
      </g>
    </g>
    <g
       transform="matrix(-1,0,0,1,1000,0)"
       id="g11">
      <g
         transform="matrix(2,0,0,2,31.32,36.62)"
         id="g10">
        <g
           transform="matrix(0.427557,0,0,0.427557,81.181313,139.3194)"
           id="g9">
          <path
             fill="inherit"
             d="m 861.578,-98.713 -298.163,125.714 -56.75,163.534 -1.326,54.802 1.326,59.286 55.26,173.945 c 1.47,3.3 130.834,-53.17 130.834,-53.17 l 22.69,-71.844 -118.464,49.864 v -23.391 l 126.984,-53.448 26.633,-84.322 -153.617,64.66 V 283.529 L 759.122,215.283 786.5,128.605 596.985,208.373 V 184.984 L 795.021,101.627 821.117,18.997 596.985,113.34 V 89.95 L 829.777,-8.038 Z"
             id="path8" />
        </g>
      </g>
    </g>
  </g>
  <!-- Black fill layer (on top) -->
  <g
     fill="#000000"
     stroke="none"
     id="g23"
     transform="translate(-67.004799,-227.48131)">
    <!-- OUTER RING -->
    <path
       d="m 336.3,339.1 a 229.5,229.5 0 0 1 327.4,0 l -8.6,24.6 a 206.5,206.5 0 0 0 -310.2,0 z"
       fill="inherit"
       id="path12" />
    <path
       d="m 647.2,676.1 a 229.5,229.5 0 0 1 -294.4,0 l 7.6,-23.9 a 206.5,206.5 0 0 0 279.2,0 z"
       fill="inherit"
       id="path13" />
    <!-- MIDDLE RING (gap at 200°) -->
    <path
       d="m 360.4,408.4 a 167,167 0 0 1 279.2,0 l -10,28.8 a 144,144 0 0 0 -259.2,0 z"
       fill="inherit"
       id="path14" />
    <path
       d="M 626.1,609.5 A 167,167 0 0 1 519,665.9 V 642.7 A 144,144 0 0 0 617.6,583 Z"
       fill="inherit"
       id="path15" />
    <path
       d="M 481,665.9 A 167,167 0 0 1 373.9,609.5 l 8.5,-26.5 a 144,144 0 0 0 98.6,59.7 z"
       fill="inherit"
       id="path16" />
    <!-- INNER RING (full circle, gap at 270°) -->
    <path
       d="m 396.8,483.9 a 104.5,104.5 0 1 1 0,32.2 h 23.3 a 81.5,81.5 0 1 0 0,-32.2 z"
       fill="inherit"
       id="path17" />
    <!-- VERTICAL CONNECTOR (mid to inner, top) -->
    <rect
       x="488.5"
       y="353"
       width="23"
       height="45.5"
       fill="inherit"
       id="rect17" />
    <!-- RADIAL CONNECTOR (mid to inner, bottom-right) -->
    <rect
       x="-11.5"
       y="-22.799999"
       width="23"
       height="45.5"
       transform="rotate(152,203.19236,374.46238)"
       fill="inherit"
       id="rect18" />
    <!-- CENTER DOT -->
    <circle
       cx="500"
       cy="500"
       r="42"
       fill="inherit"
       id="circle18" />
    <g
       transform="matrix(2,0,0,2,31.32,36.62)"
       id="g19">
      <g
         transform="matrix(0.427557,0,0,0.427557,81.181313,139.3194)"
         id="g18">
        <path
           fill="inherit"
           d="m 861.578,-98.713 -298.163,125.714 -56.75,163.534 -1.326,54.802 1.326,59.286 55.26,173.945 c 1.47,3.3 130.834,-53.17 130.834,-53.17 l 22.69,-71.844 -118.464,49.864 v -23.391 l 126.984,-53.448 26.633,-84.322 -153.617,64.66 V 283.529 L 759.122,215.283 786.5,128.605 596.985,208.373 V 184.984 L 795.021,101.627 821.117,18.997 596.985,113.34 V 89.95 L 829.777,-8.038 Z"
           id="path18" />
      </g>
    </g>
    <g
       transform="matrix(-1,0,0,1,1000,0)"
       id="g22">
      <g
         transform="matrix(2,0,0,2,31.32,36.62)"
         id="g21">
        <g
           transform="matrix(0.427557,0,0,0.427557,81.181313,139.3194)"
           id="g20">
          <path
             fill="inherit"
             d="m 861.578,-98.713 -298.163,125.714 -56.75,163.534 -1.326,54.802 1.326,59.286 55.26,173.945 c 1.47,3.3 130.834,-53.17 130.834,-53.17 l 22.69,-71.844 -118.464,49.864 v -23.391 l 126.984,-53.448 26.633,-84.322 -153.617,64.66 V 283.529 L 759.122,215.283 786.5,128.605 596.985,208.373 V 184.984 L 795.021,101.627 821.117,18.997 596.985,113.34 V 89.95 L 829.777,-8.038 Z"
             id="path19" />
        </g>
      </g>
    </g>
  </g>
  <text
     xml:space="preserve"
     style="font-style:normal;font-variant:normal;font-weight:normal;font-stretch:normal;font-size:373.333px;line-height:0.8;font-family:'Euro Caps';-inkscape-font-specification:'Euro Caps';letter-spacing:0px;word-spacing:0px;writing-mode:lr-tb;direction:ltr;fill:#000000;stroke:#fa9600;stroke-width:3;stroke-dasharray:none;stroke-opacity:1;fill-opacity:1"
     x="898.28436"
     y="217.69772"
     id="text2"><tspan
       sodipodi:role="line"
       id="tspan2"
       x="898.28436"
       y="217.69772"
       style="font-size:373.333px;fill:#000000;fill-opacity:1;stroke:#fa9600;stroke-width:3;stroke-dasharray:none;stroke-opacity:1">Daedalus</tspan><tspan
       sodipodi:role="line"
       x="898.28436"
       y="516.36414"
       id="tspan3"
       style="font-size:373.333px;fill:#000000;fill-opacity:1;stroke:#fa9600;stroke-width:3;stroke-dasharray:none;stroke-opacity:1"
       dx="0 -12.92333">Terminal</tspan></text>
</svg>
