<svg xmlns="http://www.w3.org/2000/svg" xmlns:svg="http://www.w3.org/2000/svg" id="svg4" preserveAspectRatio="xMidYMid meet" version="1.1" viewBox="0 0 1000 1000"><g id="Layer_3" transform="matrix(1.2929903,0.57984682,-0.57984682,1.2929903,257.38114,-85.50173)" style="fill:#000"><g id="g920" style="fill:#000"><g id="g710" transform="matrix(1.4009627,1.1346529,1.1346529,3.4222656,-735.73368,-2061.8649)"><path id="path1836" d="m 359.2931,485.40537 61.12544,71.48959 -104.58197,46.90022 174.5365,-22.16011 132.63626,-115.59278 -104.58196,46.90023 -12.72754,-93.19381 z" style="fill-rule:evenodd;stroke-width:20.7788;paint-order:fill markers stroke"/></g><path id="path700" d="m 134.04386,212.9733 8.46387,-23.69229 -16.93191,-15.44219 -30.442323,2.50611 -46.372565,35.70088 -8.187022,24.44962 12.510417,14.99144 34.702997,-4.27499 z m -8.28837,-17.01735 -8.14557,13.08991 -31.713888,23.7893 -24.623446,4.44611 -4.586451,-6.62027 4.082977,-15.8654 37.806672,-28.39877 20.805576,-0.0742 z M 83.357014,115.48634 194.13268,94.888864 l 59.83475,57.423626 179.42994,293.18209 -43.56892,96.57639 -116.94535,79.9509 -104.96822,11.03895 -187.279132,-303.16005 -40.01343,-54.41986 28.913095,-78.85219 z m 6.508754,28.20963 -94.3949509,67.5631 -20.7360571,63.4052 30.5245418,35.93469 93.0324502,-18.29485 85.839528,-67.06265 28.54629,-65.46148 -32.79872,-35.04382 z m -64.512201,191.95482 159.143993,264.93219 85.01942,-10.74068 102.16737,-71.75379 27.5087,-63.63477 -161.1663,-268.29978 -28.87145,56.89647 -97.03444,75.71395 z m 65.275201,-29.99868 11.091102,-9.33027 178.00993,292.77439 -11.42363,8.58866 z m 98.235042,-71.844 9.47729,-11.18836 180.45213,293.04338 -7.23299,12.00341 z" style="fill:#000;stroke-width:.83013"/></g></g></svg>