<svg xmlns="http://www.w3.org/2000/svg" xmlns:svg="http://www.w3.org/2000/svg" id="svg4" preserveAspectRatio="xMidYMid meet" version="1.1" viewBox="0 0 1000 1000"><g id="Layer_3" transform="matrix(1.2929903,0.57984682,-0.57984682,1.2929903,257.38114,-85.50173)" style="fill:#000"><g id="g920" style="fill:#000"><path id="path918" d="m 201.12743,137.23568 10.86991,-30.42725 -21.74512,-19.831893 -39.09601,3.218483 -59.55477,45.84951 -10.514369,31.39989 16.066742,19.25302 44.567947,-5.49025 z m -10.64448,-21.85484 -10.46108,16.81097 -40.72902,30.55185 -31.62312,5.70997 -5.89024,-8.50218 5.24363,-20.37544 48.5539,-36.47161 26.71984,-0.0952 z M 136.03205,12.036349 278.29758,-14.41634 355.14143,59.330962 649.9679,406.97909 594.01375,531.009 443.82465,633.68732 309.01734,647.86432 4.1104607,287.40186 -47.277434,217.51223 -10.145309,116.24486 Z M 144.39102,48.265054 23.162635,135.03412 -3.4679807,216.46341 35.733677,262.61319 155.21223,239.1177 265.45312,152.99124 302.1142,68.921229 259.99183,23.915573 Z M 61.54009,294.78643 330.31396,606.15405 439.5016,592.36014 570.71186,500.20908 606.04044,418.48504 334.6693,102.79248 297.59063,175.86282 172.97242,273.09975 Z m 83.83083,-38.52637 14.24388,-11.98252 293.00289,347.12446 -14.67101,11.03012 z m 126.16001,-92.26692 12.1714,-14.36886 296.13927,347.46998 -9.28914,15.41561 z" style="fill:#000;stroke-width:1.06611"/></g></g></svg>