<svg xmlns="http://www.w3.org/2000/svg" xmlns:svg="http://www.w3.org/2000/svg" id="svg18" preserveAspectRatio="xMidYMid meet" version="1.1" viewBox="0 0 1000 1000"><g id="g16" transform="matrix(1.443645,0,0,1.4665896,-13.613043,68.82957)"><path id="path3163" d="m 499.24609,1.3984375 c -150.94466,0 -274.21249,122.8725225 -274.21289,273.5742225 2.5e-4,90.75618 44.7433,171.37165 113.27735,221.18359 -34.75452,9.40419 -67.71812,21.81569 -97.69727,37.3457 C 161.04323,574.7214 99.630859,643.34488 99.630859,732.99023 V 999.01172 H 905.75977 V 732.99023 c 0,-88.92601 -54.12283,-157.83784 -126.98243,-198.86132 C 745.03095,515.12805 707.0615,501.01483 666.77539,491.19922 731.56472,441.08736 773.45875,362.7812 773.45898,274.97266 773.45858,124.27096 650.19076,1.3984311 499.24609,1.3984375 Z m 0,75.0078125 c 110.51612,-5e-6 199.20479,88.51209 199.20508,198.56641 -2.9e-4,110.05431 -88.68896,198.56641 -199.20508,198.5664 -110.5161,0 -199.20478,-88.51209 -199.20507,-198.5664 2.9e-4,-110.05432 88.68896,-198.56641 199.20507,-198.56641 z m 20.26172,472.41406 c 83.52673,0.70766 165.33749,18.5003 222.46875,50.66797 57.13127,32.16767 88.77539,73.3441 88.77539,133.50195 V 924.00391 H 174.63867 V 732.99023 c 0,-56.35712 35.77807,-99.36918 100.47656,-132.88476 64.6985,-33.51558 155.47705,-52.03847 244.39258,-51.28516 z" transform="matrix(0.69269107,0,0,0.68185401,9.4296333,-46.931718)" style="color:#000;fill:#000;fill-rule:evenodd;-inkscape-stroke:none;paint-order:fill markers stroke"/></g></svg>