<svg xmlns="http://www.w3.org/2000/svg" xmlns:svg="http://www.w3.org/2000/svg" id="svg8" preserveAspectRatio="xMidYMid meet" version="1.1" viewBox="0 0 1000 1000"><g id="g2387" transform="matrix(1.1230386,0,0,1.1230386,-94.132787,10.706696)" style="stroke-width:1.71232;stroke-miterlimit:4;stroke-dasharray:none"><path id="path14369" d="m 775.39859,122.29472 c 0,0 -205.30175,258.46797 -210.13332,408.81369 a 199.34701,219.61959 0 0 0 -2.44967,33.38405 199.34701,219.61959 0 0 0 199.34626,219.61851 199.34701,219.61959 0 0 0 199.34626,-219.61851 199.34701,219.61959 0 0 0 -1.69597,-28.20139 C 957.16086,381.80152 775.39859,122.29472 775.39859,122.29472 Z" style="color:#000;fill:#000;fill-rule:evenodd;stroke-width:3.44529;stroke-miterlimit:4;stroke-dasharray:none;paint-order:fill markers stroke"/><path id="path14375" d="M 180.69531,306.17578 V 459.85742 H 27.728516 V 565.18359 H 180.69531 V 711.66211 H 286.02148 V 565.18359 H 433.21484 V 459.85742 H 286.02148 V 306.17578 Z" transform="matrix(0.89044134,0,0,0.89044134,83.819725,-9.5336848)" style="fill-rule:evenodd;stroke-width:1.70049;paint-order:fill markers stroke"/></g></svg>