<svg xmlns="http://www.w3.org/2000/svg" xmlns:svg="http://www.w3.org/2000/svg" id="svg10" preserveAspectRatio="xMidYMid meet" version="1.1" viewBox="0 0 1000 1000"><path id="path2" d="m 643.803,352.17773 c 0,-40.07813 0,-80.15625 0,-120.23438 V 20 L 750.65652,125.08984 851.56081,24.18554 971.79519,144.41992 871.89284,244.32226 979.428,350.08203 v 2.0957 H 764.03738 Z"/><path id="path2-0" d="m 355.625,352.17773 c 0,-40.07813 0,-80.15625 0,-120.23438 V 20 L 248.77147,125.08984 147.86718,24.18554 27.6328,144.41992 127.53515,244.32226 20,350.08203 v 2.0957 h 215.39061 z"/><path id="path2-06" d="m 355.625,647.50793 c 0,40.07814 0,80.15628 0,120.23442 V 979.6857 L 248.77148,874.59586 147.86719,975.50016 27.63281,855.26578 127.53516,755.36344 20,649.60367 v -2.09574 h 215.39062 z"/><path id="path2-0-0" d="m 643.803,647.50793 c 0,40.07814 0,80.15628 0,120.23442 V 979.6857 L 750.65651,874.59586 851.5608,975.50016 971.79518,855.26578 871.89283,755.36344 979.42798,649.60367 v -2.09574 H 764.03737 Z"/></svg>