<svg xmlns="http://www.w3.org/2000/svg" xmlns:svg="http://www.w3.org/2000/svg" id="svg4" preserveAspectRatio="xMidYMid meet" version="1.1" viewBox="0 0 1000 1000"><path id="path1266" d="M 503.16406,11.729165 C 226.87309,26.533484 20.388159,247.28115 16.602212,498.29102 31.406532,774.58198 252.1542,981.06692 503.16406,984.85287 779.45502,970.04855 985.93997,749.30088 989.72592,498.29102 974.92158,222.00006 754.17394,15.515111 503.16406,11.729165 Z m 0,92.993495 C 738.02019,117.29974 893.51448,284.94837 896.73036,498.29102 884.1533,733.14616 716.50547,888.64145 503.16406,891.85732 268.30809,879.28041 112.81159,711.6335 109.59571,498.29102 122.17263,263.43407 289.82034,107.93856 503.16406,104.72266 Z" style="color:#000;fill:#000;fill-rule:evenodd;stroke-width:1.04941;-inkscape-stroke:none;paint-order:fill markers stroke"/><rect style="fill:#000;fill-rule:evenodd;stroke-width:90.166;paint-order:fill markers stroke" id="rect844" width="100.98" height="380.049" x="450.312" y="412.008"/><rect style="fill:#000;fill-rule:evenodd;stroke-width:74.6745;paint-order:fill markers stroke" id="rect844-1" width="100.98" height="260.675" x="692.206" y="-627.912" transform="rotate(90)"/><rect style="fill:#000;fill-rule:evenodd;stroke-width:56.1296;paint-order:fill markers stroke" id="rect844-1-1" width="100.98" height="147.278" x="412.008" y="-551.291" transform="rotate(90)"/><circle style="fill:#000;fill-rule:evenodd;stroke-width:103.313;paint-order:fill markers stroke" id="path1037" cx="501.236" cy="270.459" r="68.047"/></svg>