<svg xmlns="http://www.w3.org/2000/svg" xmlns:svg="http://www.w3.org/2000/svg" id="svg4" preserveAspectRatio="xMidYMid meet" version="1.1" viewBox="0 0 1000 1000"><g id="Layer_3" transform="matrix(1.2929903,0.57984682,-0.57984682,1.2929903,257.38114,-85.50173)" style="fill:#000"><g id="g920" style="fill:#000"><path id="path7499" d="M 497.31836,6.9003906 113.33594,266.1582 113.08789,715.22852 C 110.7855,714.8367 497.39243,991.43357 497.4082,991.75586 l 384.05664,-276.67383 -0.25,-448.98437 z M 497.00195,70.644531 796.58008,275.70703 497.00391,477.36914 197.42578,275.70508 Z m 334.36914,257.189449 0.2168,351.46485 -305.83203,224.30664 -0.2168,-379.46289 z m -668.20312,24.11914 305.82422,209.08204 -0.0117,21.85156 L 163.1543,373.80078 Z m -0.0371,59.22071 305.82812,209.08594 -0.0117,21.08398 -305.82813,-209.08789 z m -0.0352,58.45312 305.83008,209.08985 -0.0117,19.93554 -305.83008,-209.08789 z m 608.51758,6.35743 -190.69531,129 -1.375,150.38671 190.69336,-129 z m -608.55273,50.95117 305.83398,209.08984 -0.0117,20.85547 -305.83593,-209.0918 z m -0.0352,58.22656 305.83594,209.0918 -0.0137,21.84961 -305.83594,-209.09375 z m -0.0371,59.2207 305.83984,209.09375 -0.0137,21.08399 -305.83984,-209.09571 z" transform="matrix(0.64390464,-0.28876169,0.28876169,0.64390464,-141.03929,129.37677)" style="color:#000;fill-rule:evenodd;stroke-width:1.41938;-inkscape-stroke:none;paint-order:fill markers stroke"/></g></g></svg>