<svg xmlns="http://www.w3.org/2000/svg" xmlns:svg="http://www.w3.org/2000/svg" id="svg4" preserveAspectRatio="xMidYMid meet" version="1.1" viewBox="0 0 1000 1000"><path id="path4554" d="M 177.95117,21.324219 66.8125,170.73242 l 71.89453,170.61133 183.03125,21.20117 c 37.04907,-49.8011 74.09409,-99.60522 111.14063,-149.4082 L 360.98438,42.525391 Z m 274.16016,217.873051 -111.13672,149.4082 71.89258,170.61133 183.0332,21.20117 c 37.04409,-49.80546 74.09333,-99.60709 111.14063,-149.41016 L 635.14453,260.39844 Z M 125.4707,373.50977 14.330078,522.91992 86.224609,693.53125 269.25781,714.73242 c 37.04658,-49.80312 74.0925,-99.60673 111.13867,-149.41015 L 308.50391,394.71094 Z m 606.38672,85.69335 -111.14062,149.40821 71.89453,170.61133 183.03515,21.20312 C 912.68969,750.62063 949.73726,700.81874 986.7832,651.01562 L 914.88867,480.4043 Z M 406.36719,590.13477 295.23047,739.54297 367.125,910.1543 550.15625,931.35547 C 587.20312,881.55273 624.25,831.75 661.29688,781.94727 L 589.40234,611.33789 Z" style="color:#000;fill:#000;fill-rule:evenodd;stroke-width:1.10337;-inkscape-stroke:none;paint-order:fill markers stroke"/></svg>