<svg xmlns="http://www.w3.org/2000/svg" xmlns:svg="http://www.w3.org/2000/svg" id="svg20" width="827.721" height="721.5" x="0" y="0" enable-background="new 0 0 827.721 721.5" version="1.1" viewBox="0 0 827.721 721.5" xml:space="preserve"><g id="Layer_3" style="fill:#000"><path id="path870" d="m 305.878,483.814 231.265,-111.948 7.283,-134.18 -190.834,84.465 z m 522.448,-75.365 -46.92,-0.004 -142.01,231.551 23.473,38.237 z M 269.201,683.58 244.673,723.578 582.581,723.602 558.027,683.6 Z M 164.598,677.869 188.061,639.607 46.303,408.393 -0.619,408.392 Z M 827.721,316.288 661.083,44.495 637.621,82.756 780.801,316.286 Z M 554.445,42.1 578.973,2.102 247.811,2.078 272.367,42.081 Z M 0,316.231 46.921,316.235 189.656,83.5 166.185,45.262 Z" style="fill:#000"/></g></svg>