<svg xmlns="http://www.w3.org/2000/svg" xmlns:svg="http://www.w3.org/2000/svg" id="svg16" width="797.16" height="647" x="0" y="0" enable-background="new 0 0 797.16 647" version="1.1" viewBox="0 0 797.16 647" xml:space="preserve"><g id="Layer_2" style="fill:#000"><path id="path2" fill="#ff7100" d="M 566.08,54 733.58,323.5 566.08,593 h -335 L 63.58,323.5 231.08,54 h 334.5 M 596.098,0 h -30.018 -335 -30.018 L 185.216,25.245 17.717,294.62 0,323.063 17.717,351.537 185.217,621.271 201.063,647 h 30.018 335 30.018 L 611.945,621.255 779.445,351.63 797.162,323.063 779.445,294.526 611.943,25.26 Z" style="fill:#000"/></g><g id="Layer_3" style="fill:#000"><polygon id="polygon5" fill="#ff7100" points="345.914 394.139 312.58 182.333 206.58 144.333 227.914 316.667" style="fill:#000"/><polygon id="polygon7" fill="#ff7100" points="450.914 394.381 239.175 360.632 170.278 449.701 340.77 482.666" style="fill:#000"/><polygon id="polygon9" fill="#ff7100" points="483.591 294.595 386.063 485.542 449.482 578.59 533.519 426.63" style="fill:#000"/><polygon id="polygon11" fill="#ff7100" points="398.786 232.682 550.25 384.442 658.342 352.88 539.787 225.998" style="fill:#000"/><polygon id="polygon13" fill="#ff7100" points="313.697 294.203 504.836 197.05 508.22 84.494 350.913 158.038" style="fill:#000"/></g></svg>