<svg xmlns="http://www.w3.org/2000/svg" xmlns:svg="http://www.w3.org/2000/svg" id="svg4" preserveAspectRatio="xMidYMid meet" version="1.1" viewBox="0 0 1000 1000"><path id="path900" d="m 503.16406,34.638672 c -122.95463,0 -240.90951,48.858729 -327.85156,135.800778 -86.942054,86.94206 -135.80078,204.89694 -135.800781,327.85157 0,122.95463 48.858727,240.9095 135.800781,327.85156 86.94205,86.94205 204.89693,135.80078 327.85156,135.80078 122.95463,0 240.90951,-48.85873 327.85156,-135.80078 C 917.95768,739.20052 966.81641,621.24565 966.81641,498.29102 966.8164,375.33639 917.95768,257.38151 831.01562,170.43945 744.07357,83.497401 626.11869,34.638672 503.16406,34.638672 Z m 0,69.558598 c 104.53363,0 204.74958,41.51129 278.66602,115.42773 73.91644,73.91644 115.42773,174.13239 115.42773,278.66602 0,104.53363 -41.51129,204.74957 -115.42773,278.66601 -73.91644,73.91644 -174.13239,115.42774 -278.66602,115.42774 -104.53363,0 -204.75153,-41.5113 -278.66797,-115.42774 -73.91644,-73.91644 -115.42773,-174.13238 -115.42773,-278.66601 0,-104.53363 41.51129,-204.75153 115.42773,-278.66797 73.91644,-73.91644 174.13434,-115.42578 278.66797,-115.42578 z" style="color:#000;fill:#000;fill-rule:evenodd;-inkscape-stroke:none;paint-order:fill markers stroke"/></svg>