<svg xmlns="http://www.w3.org/2000/svg" xmlns:svg="http://www.w3.org/2000/svg" id="svg4" preserveAspectRatio="xMidYMid meet" version="1.1" viewBox="0 0 1000 1000"><path id="path3400" d="m 209.28347,219.28281 c -57.8574,-2.27562 -98.48395,13.45823 -109.927345,42.57267 -20.3284,51.72319 55.576605,129.95893 169.537465,174.74329 34.64478,13.56845 70.26466,22.95433 103.57771,27.29282 l -0.11156,0.10884 c 135.34154,71.74049 236.68446,268.22969 168.52757,412.33845 h 75.2638 c 38.69044,-123.02136 -1.04157,-253.13393 -68.66031,-355.6158 49.04917,5.39004 115.69972,-9.21295 179.67848,-39.36716 111.54538,-52.64921 182.59884,-136.37179 158.70181,-186.99898 -23.8958,-50.62732 -133.6919,-48.98858 -245.2365,3.66025 -52.15844,24.66452 -97.9355,57.52166 -127.74036,91.68749 C 499.47896,340.53765 430.94272,284.05999 342.50307,249.29295 297.07965,231.44249 250.25217,220.89377 209.2835,219.28284 Z" style="color:#000;fill:#000;fill-rule:evenodd;stroke-width:1.42839;-inkscape-stroke:none;paint-order:fill markers stroke"/></svg>