<svg xmlns="http://www.w3.org/2000/svg" xmlns:svg="http://www.w3.org/2000/svg" id="svg4" preserveAspectRatio="xMidYMid meet" version="1.1" viewBox="0 0 1000 1000"><path id="path1049" d="M 493.69922,38.066406 C 370.74464,38.066408 252.79162,86.92513 165.84961,173.86719 78.907597,260.80924 30.048828,378.76412 30.048828,501.71875 c 0,122.95463 48.858769,240.90951 135.800782,327.85156 86.94201,86.94206 204.89503,135.79883 327.84961,135.79883 122.95458,0 240.90955,-48.85677 327.85156,-135.79883 86.94201,-86.94205 135.80078,-204.89693 135.80078,-327.85156 0,-122.95463 -48.85877,-240.90951 -135.80078,-327.85156 C 734.60877,86.92513 616.6538,38.066406 493.69922,38.066406 Z m 0,69.556644 c 104.53357,0 204.75157,41.51129 278.66797,115.42773 73.9164,73.91644 115.42773,174.13433 115.42773,278.66797 0,104.53364 -41.51133,204.74958 -115.42773,278.66602 C 698.45079,854.3012 598.23279,895.8125 493.69922,895.8125 389.16565,895.8125 288.9496,854.3012 215.0332,780.38477 141.1168,706.46833 99.605469,606.25238 99.605469,501.71875 99.605469,397.18512 141.1168,296.96722 215.0332,223.05078 288.9496,149.13434 389.16565,107.62305 493.69922,107.62305 Z" style="color:#000;fill:#000;fill-rule:evenodd;stroke-width:1.07209;-inkscape-stroke:none;paint-order:fill markers stroke"/><path style="color:#000;fill:#000;fill-rule:evenodd;stroke-width:1.16525;-inkscape-stroke:none;paint-order:fill markers stroke" id="path2488" d="M 439.35498,243.33425 363.27211,435.3416 H 624.12767 L 548.0448,243.33425 Z"/><path style="color:#000;fill:#000;fill-rule:evenodd;stroke-width:1.16525;-inkscape-stroke:none;paint-order:fill markers stroke" id="path2488-2" d="M 254.5823,478.81752 178.49943,670.82487 H 439.35498 L 363.27211,478.81752 Z"/><path style="color:#000;fill:#000;fill-rule:evenodd;stroke-width:1.16525;-inkscape-stroke:none;paint-order:fill markers stroke" id="path2488-5" d="M 624.12767,478.81752 548.0448,670.82487 H 808.90035 L 732.81748,478.81752 Z"/></svg>