<svg xmlns="http://www.w3.org/2000/svg" xmlns:svg="http://www.w3.org/2000/svg" id="svg4" preserveAspectRatio="xMidYMid meet" version="1.1" viewBox="0 0 1000 1000"><path id="path2" d="m 862.98602,220.5041 a 136.44227,136.44227 0 0 0 -136.44297,136.44296 136.44227,136.44227 0 0 0 11.45936,54.34709 L 602.91264,510.8725 a 97.011715,97.011715 0 0 0 -33.46669,-6.21736 97.011715,97.011715 0 0 0 -54.47088,16.91477 L 384.71534,429.61973 a 97.011715,97.011715 0 0 0 3.85038,-26.98466 97.011715,97.011715 0 0 0 -97.01073,-97.01074 97.011715,97.011715 0 0 0 -97.01288,97.01074 97.011715,97.011715 0 0 0 29.37302,69.20649 L 103.40088,685.5866 A 82.616429,82.616429 0 0 0 83.762656,683.03177 82.616429,82.616429 0 0 0 1.1460234,765.64627 82.616429,82.616429 0 0 0 83.762656,848.26291 82.616429,82.616429 0 0 0 166.3793,765.64627 82.616429,82.616429 0 0 0 149.50508,715.96061 L 272.64886,497.552 a 97.011715,97.011715 0 0 0 18.90613,2.09593 97.011715,97.011715 0 0 0 63.39675,-23.61878 l 125.13302,88.33031 a 97.011715,97.011715 0 0 0 -7.64953,37.3064 97.011715,97.011715 0 0 0 97.01072,97.01288 97.011715,97.011715 0 0 0 97.01286,-97.01288 97.011715,97.011715 0 0 0 -18.00969,-55.93292 l 121.3808,-89.47432 a 136.44227,136.44227 0 0 0 93.1561,37.12925 A 136.44227,136.44227 0 0 0 999.42687,356.94706 136.44227,136.44227 0 0 0 862.98602,220.5041 Z" style="stroke-width:1.0519"/></svg>