<svg xmlns="http://www.w3.org/2000/svg" xmlns:svg="http://www.w3.org/2000/svg" id="svg4" preserveAspectRatio="xMidYMid meet" version="1.1" viewBox="0 0 1000 1000"><path id="path851" d="M 996.1458,85.155272 H 851.37151 V 4.5947252 h -54.5832 -41.36408 -54.5832 V 85.155272 H 4.686525 v 15.999998 60.26367 14.26563 H 700.84103 v 82.59375 h 95.94728 54.5832 V 175.68457 H 996.1458 v -14.26563 -60.26367 z m 0,379.732418 H 334.32061 v -80.29297 h -54.5832 -41.36407 -54.5832 v 80.29297 H 4.686525 v 16.26758 60.26367 14 H 183.79014 v 82.85938 h 95.94727 54.5832 V 555.41894 H 996.1458 v -14 -60.26367 z m 0,362.26758 H 630.90384 v -82.56055 h -54.58321 -41.36407 -54.58321 v 82.56055 H 4.686525 v 14 60.26367 16.26563 H 480.37335 v 80.59373 h 54.58321 95.94728 V 917.68457 H 996.1458 v -16.26563 -60.26367 z" style="fill:#000;fill-rule:evenodd;stroke-width:54.3846;paint-order:fill markers stroke"/></svg>