<svg xmlns="http://www.w3.org/2000/svg" xmlns:svg="http://www.w3.org/2000/svg" id="svg4" preserveAspectRatio="xMidYMid meet" version="1.1" viewBox="0 0 1000 1000"><path id="path6893" d="M 503.24805,48.818359 C 384.8681,48.66613 267.37427,56.917164 178.89258,74.027344 V 355.76758 h -74.19336 l 2.39844,150.8418 c 0,0 29.01795,143.29191 111.49218,244.09374 98.51088,123.71134 267.304,210.91854 286.22071,213.04297 -0.006,0.0444 0.002,0.26366 -0.004,0.30274 0.11575,0.006 0.889,-0.13701 1.09766,-0.15039 0.20854,0.0134 0.98194,0.15665 1.09765,0.15039 -0.006,-0.0392 0.002,-0.25846 -0.004,-0.30274 0,0 136.4742,-62.16008 260.18554,-197.32617 C 877.14904,628.96288 904.70879,506.60938 904.70879,506.60938 l 2.39649,-130.8418 H 832.91602 V 74.027344 C 740.89361,57.52608 621.628,48.970588 503.24805,48.818359 Z M 256.58594,139.74805 c 252.00458,-43.52806 249.71436,-41.23711 508.59179,0 V 309.0957 c -249.71363,-43.52806 -272.62386,-43.52806 -508.59179,0 z m 244.55078,177.625 c 135.72963,6.7e-4 245.75984,108.17445 245.75976,241.61328 8e-5,133.43883 -110.03013,241.61261 -245.75976,241.61328 C 365.40633,800.6 255.37492,692.42591 255.375,558.98633 255.37492,425.54675 365.40633,317.37266 501.13672,317.37305 Z" style="color:#000;fill:#000;fill-rule:evenodd;stroke-width:1.10891;-inkscape-stroke:none;paint-order:fill markers stroke"/></svg>