<svg xmlns="http://www.w3.org/2000/svg" xmlns:svg="http://www.w3.org/2000/svg" id="svg4" preserveAspectRatio="xMidYMid meet" version="1.1" viewBox="0 0 1000 1000"><path id="path989" d="m 0,0 v 100 100 100 100 100 100 100 100 100 100 h 100 100 100 600 100 V 900 100 0 H 100 Z M 80,180 H 220 V 320 H 80 Z m 200,0 H 920 V 320 H 280 Z M 80,380 H 220 V 520 H 80 Z m 200,0 H 920 V 520 H 280 Z M 80,580 H 220 V 720 H 80 Z m 200,0 H 920 V 720 H 280 Z M 80,780 H 220 V 920 H 80 Z m 200,0 H 920 V 920 H 280 Z" style="stroke-width:1.05121;paint-order:fill markers stroke"/></svg>