<svg xmlns="http://www.w3.org/2000/svg" xmlns:svg="http://www.w3.org/2000/svg" id="svg18" preserveAspectRatio="xMidYMid meet" version="1.1" viewBox="0 0 1000 1000"><g id="g16" transform="matrix(1.443645,0,0,1.4665896,-13.613043,68.82957)"><g id="rect5183-3"><path id="path8675" d="m 656.37727,19.874573 a 134.32581,132.22431 9.731433e-5 0 0 -131.96876,-36.621447 134.32581,132.22431 9.731433e-5 0 0 -94.98332,161.943314 134.32581,132.22431 9.731433e-5 0 0 3.57645,10.54518 L 216.7395,368.62037 A 134.32581,132.22431 9.7319837e-5 0 0 115.45457,355.49895 134.32581,132.22431 9.7319837e-5 0 0 21.184496,446.52627 L 150.40941,412.44225 c 18.75068,17.75119 37.50312,35.50166 56.25372,53.25418 -7.22173,24.60364 -14.44333,49.20838 -21.66537,73.81006 L 53.018626,574.31707 a 134.32581,132.22431 9.7319837e-5 0 0 131.968764,36.61943 134.32581,132.22431 9.7319837e-5 0 0 94.9833,-161.94128 134.32581,132.22431 9.7319837e-5 0 0 -0.51493,-1.51652 l 221.0896,-217.63067 a 134.32581,132.22431 9.731433e-5 0 0 93.39491,8.84368 134.32581,132.22431 9.731433e-5 0 0 94.27009,-91.02733 L 558.98544,181.7484 c -18.75067,-17.75118 -37.50208,-35.50269 -56.25267,-53.2552 7.22172,-24.60364 14.44331,-49.206341 21.66535,-73.808013 z" style="color:#000;fill:#000;fill-rule:evenodd;stroke-width:58.6825;-inkscape-stroke:none;paint-order:fill markers stroke"/></g></g></svg>