<svg xmlns="http://www.w3.org/2000/svg" width="164" height="314" viewBox="0 0 164 314"><defs><filter id="panelGlow" width="140%" height="140%" x="-20%" y="-20%"><feDropShadow dx="0" dy="0" flood-color="#111" flood-opacity=".28" stdDeviation="1.4"/><feDropShadow dx="0" dy="0" flood-color="#fa9600" flood-opacity=".16" stdDeviation=".8"/></filter></defs><rect width="164" height="314" fill="#fff"/><g filter="url(#panelGlow)" transform="translate(43 243) rotate(-90) scale(0.091)"><g style="font-size:373.333px;line-height:.8;font-family:'Euro Caps';letter-spacing:0;word-spacing:0;fill:#fff;stroke:#000;stroke-width:3" aria-label="Daedalus Terminal"><path d="M 924.35205,217.69772 V 4.4166594 h 104.45305 q 20.2343,0 34.6354,3.6458301 22.0572,5.2864535 33.7239,27.1614345 10.7552,20.234358 10.7552,66.171816 0,37.73434 -1.6406,52.49996 -4.5573,41.38017 -31.1719,55.23432 -10.026,5.10416 -30.8072,7.83854 -5.4688,0.72916 -9.4792,0.72916 z m 28.98435,-25.88539 h 70.5468 q 33.7239,0 43.75,-12.03124 8.3854,-10.02603 10.3906,-33.72393 0.9114,-10.7552 0.9114,-30.80726 0,-36.093722 -1.8229,-50.677043 -3.2812,-24.427062 -21.3281,-30.807265 -9.8437,-3.463539 -27.1614,-3.463539 h -75.2864 z m 327.9424,-18.22915 h -105.1822 l -16.7708,44.11454 h -30.8073 L 1209.456,4.4166594 h 36.8229 l 82.578,213.2810606 h -30.625 z M 1271.7997,149.15612 1228.232,35.223924 1185.3935,149.15612 Z M 1387.3725,30.302053 v 64.531194 h 111.1978 v 25.338523 h -111.1978 v 71.64056 h 115.7551 v 25.88539 H 1358.3881 V 4.4166594 h 144.7395 V 30.302053 Z M 1547.2421,217.69772 V 4.4166594 h 104.4531 q 20.2343,0 34.6353,3.6458301 22.0573,5.2864535 33.724,27.1614345 10.7552,20.234358 10.7552,66.171816 0,37.73434 -1.6407,52.49996 -4.5572,41.38017 -31.1718,55.23432 -10.026,5.10416 -30.8073,7.83854 -5.4687,0.72916 -9.4791,0.72916 z m 28.9844,-25.88539 h 70.5468 q 33.7239,0 43.7499,-12.03124 8.3855,-10.02603 10.3907,-33.72393 0.9114,-10.7552 0.9114,-30.80726 0,-36.093722 -1.8229,-50.677043 -3.2812,-24.427062 -21.3281,-30.807265 -9.8437,-3.463539 -27.1614,-3.463539 h -75.2864 z m 327.9424,-18.22915 h -105.1822 l -16.7708,44.11454 h -30.8073 L 1832.3461,4.4166594 h 36.8229 l 82.578,213.2810606 h -30.625 z m -9.4791,-24.42706 -43.5677,-113.932196 -42.8385,113.932196 z M 2010.2625,4.4166594 V 190.17171 h 112.6562 v 27.52601 H 1981.2782 V 4.4166594 Z m 292.5779,0 h 28.9844 V 152.61966 q 0,27.34372 -6.0157,39.73954 -8.9322,18.77603 -32.0833,24.97394 -12.5781,3.28125 -48.6718,3.28125 -25.7031,0 -37.0052,-1.09375 -11.1198,-1.09375 -19.6875,-4.375 -19.1406,-7.29166 -26.4322,-22.78644 -6.0157,-12.94269 -6.0157,-39.73954 V 4.4166594 h 28.9844 V 152.61966 q 0,22.60414 3.8281,29.34893 4.9219,8.38541 19.1406,11.11978 8.5677,1.64062 32.9948,1.64062 35.9114,0 47.0312,-3.64583 10.2083,-3.28124 13.125,-16.40623 1.8229,-7.29166 1.8229,-22.05727 z m 235.1561,61.9791126 h -28.9843 q 0,-15.130195 -1.2761,-21.328106 -2.3698,-12.03124 -14.9479,-15.494779 -8.0208,-2.187498 -28.6197,-2.187498 -28.9844,0 -37.3698,1.458332 -15.6771,2.552081 -20.0521,14.036446 -2.552,6.927078 -2.552,18.229151 0,14.401029 3.4635,22.057273 4.0104,8.567701 19.8698,10.572907 5.8333,0.729166 34.4531,1.822915 31.7187,1.276041 43.2031,3.463539 22.9687,4.739578 31.3541,22.421858 5.2864,11.30207 5.2864,34.99997 0,34.45309 -11.302,47.2135 -11.6667,13.12499 -33.3594,15.31248 -16.5885,1.64063 -44.8437,1.64063 -34.2708,0 -45.9374,-3.64583 -27.3438,-8.75 -31.3542,-42.10934 -0.9114,-7.10937 -1.276,-26.97914 h 28.9843 q 0,6.19791 0,8.02082 0.1823,15.67707 2.3698,23.15102 2.1875,7.29166 7.8386,11.11979 5.2864,3.64583 16.7708,4.01041 12.5781,0.54687 29.8958,0.54687 23.6979,0 33.5416,-1.82291 9.8438,-1.82292 14.2188,-7.10937 5.4687,-6.3802 5.4687,-32.08331 0,-12.39582 -2.7344,-18.41144 -3.6458,-8.5677 -18.0468,-10.39061 -7.1094,-0.91146 -35.9115,-2.00521 -28.6197,-1.27604 -36.0937,-2.1875 -23.8802,-3.46354 -35.1822,-18.22915 -9.6615,-12.395822 -9.6615,-38.281216 0,-37.187468 16.5885,-49.947873 12.7604,-9.8437416 32.9948,-11.6666567 14.401,-1.0937491 33.3593,-1.0937491 36.2761,0 49.7656,4.5572877 27.526,9.1145751 29.8958,43.7499621 0.1823,3.828121 0.1823,16.588527 z"/><path d="M 1004.7426,330.60909 V 516.36413 H 975.75825 V 330.60909 h -70.54681 v -27.52602 h 169.53106 v 27.52602 z m 119.238,-1.64063 v 64.5312 h 111.1978 v 25.33852 h -111.1978 v 71.64056 h 115.7551 v 25.88539 H 1094.9963 V 303.08307 h 144.7394 v 25.88539 z m 159.8697,187.39567 V 303.08307 h 107.552 q 28.4374,0 43.2031,9.66145 12.9427,8.38541 17.6822,25.52081 2.7344,10.20833 2.7344,26.79685 0,27.34373 -7.1094,39.73955 -7.4739,13.48957 -27.3437,15.31249 31.3541,2.0052 31.5364,40.46871 v 55.7812 h -28.9843 v -50.31245 q 0,-19.68748 -8.9323,-26.97915 -9.2969,-6.74478 -27.7083,-6.3802 h -73.6458 v 83.6718 z m 28.9843,-109.55719 h 70.7291 q 21.6927,0 31.3542,-5.83333 11.1198,-6.74479 11.1198,-27.52602 0,-28.25518 -5.1042,-35.54684 -6.3802,-8.93229 -29.3489,-8.93229 h -78.75 z m 423.6455,-103.72387 v 213.28106 h -28.9844 V 329.87992 l -76.7447,186.48421 h -27.3437 l -77.1094,-186.48421 v 186.48421 h -28.9843 V 303.08307 h 45.2083 l 74.1926,182.10922 74.0104,-182.10922 z m 81.1197,0 v 213.28106 h -28.9844 V 303.08307 Z m 240.9894,0 v 213.28106 h -42.8385 L 1898.7195,329.87992 v 186.48421 h -28.9843 V 303.08307 h 42.6562 l 117.2134,186.48421 V 303.08307 Z m 182.2915,169.16652 h -105.1822 l -16.7709,44.11454 h -30.8072 l 80.9374,-213.28106 h 36.8229 l 82.578,213.28106 h -30.6249 z m -9.4792,-24.42706 -43.5677,-113.9322 -42.8385,113.9322 z m 115.5728,-144.73946 v 185.75505 h 112.6562 v 27.52601 H 2317.99 V 303.08307 Z"/></g><g><g fill="#000" stroke="#000" stroke-linejoin="round" stroke-width="6" transform="translate(-64.925609,-224.41569)"><path d="m 336.3,339.1 a 229.5,229.5 0 0 1 327.4,0 l -8.6,24.6 a 206.5,206.5 0 0 0 -310.2,0 z"/><path d="m 647.2,676.1 a 229.5,229.5 0 0 1 -294.4,0 l 7.6,-23.9 a 206.5,206.5 0 0 0 279.2,0 z"/><path d="m 360.4,408.4 a 167,167 0 0 1 279.2,0 l -10,28.8 a 144,144 0 0 0 -259.2,0 z"/><path d="M 626.1,609.5 A 167,167 0 0 1 519,665.9 V 642.7 A 144,144 0 0 0 617.6,583 Z"/><path d="M 481,665.9 A 167,167 0 0 1 373.9,609.5 l 8.5,-26.5 a 144,144 0 0 0 98.6,59.7 z"/><path d="m 396.8,483.9 a 104.5,104.5 0 1 1 0,32.2 h 23.3 a 81.5,81.5 0 1 0 0,-32.2 z"/><rect width="23" height="45.5" x="488.5" y="353"/><rect width="23" height="45.5" x="-11.5" y="-22.8" transform="rotate(152,203.19236,374.46238)"/><circle cx="500" cy="500" r="42"/><g><g><path d="m 861.578,-98.713 -298.163,125.714 -56.75,163.534 -1.326,54.802 1.326,59.286 55.26,173.945 c 1.47,3.3 130.834,-53.17 130.834,-53.17 l 22.69,-71.844 -118.464,49.864 v -23.391 l 126.984,-53.448 26.633,-84.322 -153.617,64.66 V 283.529 L 759.122,215.283 786.5,128.605 596.985,208.373 V 184.984 L 795.021,101.627 821.117,18.997 596.985,113.34 V 89.95 L 829.777,-8.038 Z" transform="matrix(2,0,0,2,31.32,36.62) matrix(0.427557,0,0,0.427557,81.181313,139.3194)"/></g></g><g><g><g><path d="m 861.578,-98.713 -298.163,125.714 -56.75,163.534 -1.326,54.802 1.326,59.286 55.26,173.945 c 1.47,3.3 130.834,-53.17 130.834,-53.17 l 22.69,-71.844 -118.464,49.864 v -23.391 l 126.984,-53.448 26.633,-84.322 -153.617,64.66 V 283.529 L 759.122,215.283 786.5,128.605 596.985,208.373 V 184.984 L 795.021,101.627 821.117,18.997 596.985,113.34 V 89.95 L 829.777,-8.038 Z" transform="matrix(-1,0,0,1,1000,0) matrix(2,0,0,2,31.32,36.62) matrix(0.427557,0,0,0.427557,81.181313,139.3194)"/></g></g></g></g><g fill="#fa9600" stroke="none" transform="translate(-64.925609,-224.41569)"><path d="m 336.3,339.1 a 229.5,229.5 0 0 1 327.4,0 l -8.6,24.6 a 206.5,206.5 0 0 0 -310.2,0 z"/><path d="m 647.2,676.1 a 229.5,229.5 0 0 1 -294.4,0 l 7.6,-23.9 a 206.5,206.5 0 0 0 279.2,0 z"/><path d="m 360.4,408.4 a 167,167 0 0 1 279.2,0 l -10,28.8 a 144,144 0 0 0 -259.2,0 z"/><path d="M 626.1,609.5 A 167,167 0 0 1 519,665.9 V 642.7 A 144,144 0 0 0 617.6,583 Z"/><path d="M 481,665.9 A 167,167 0 0 1 373.9,609.5 l 8.5,-26.5 a 144,144 0 0 0 98.6,59.7 z"/><path d="m 396.8,483.9 a 104.5,104.5 0 1 1 0,32.2 h 23.3 a 81.5,81.5 0 1 0 0,-32.2 z"/><rect width="23" height="45.5" x="488.5" y="353"/><rect width="23" height="45.5" x="-11.5" y="-22.8" transform="rotate(152,203.19236,374.46238)"/><circle cx="500" cy="500" r="42"/><g><g><path d="m 861.578,-98.713 -298.163,125.714 -56.75,163.534 -1.326,54.802 1.326,59.286 55.26,173.945 c 1.47,3.3 130.834,-53.17 130.834,-53.17 l 22.69,-71.844 -118.464,49.864 v -23.391 l 126.984,-53.448 26.633,-84.322 -153.617,64.66 V 283.529 L 759.122,215.283 786.5,128.605 596.985,208.373 V 184.984 L 795.021,101.627 821.117,18.997 596.985,113.34 V 89.95 L 829.777,-8.038 Z" transform="matrix(2,0,0,2,31.32,36.62) matrix(0.427557,0,0,0.427557,81.181313,139.3194)"/></g></g><g><g><g><path d="m 861.578,-98.713 -298.163,125.714 -56.75,163.534 -1.326,54.802 1.326,59.286 55.26,173.945 c 1.47,3.3 130.834,-53.17 130.834,-53.17 l 22.69,-71.844 -118.464,49.864 v -23.391 l 126.984,-53.448 26.633,-84.322 -153.617,64.66 V 283.529 L 759.122,215.283 786.5,128.605 596.985,208.373 V 184.984 L 795.021,101.627 821.117,18.997 596.985,113.34 V 89.95 L 829.777,-8.038 Z" transform="matrix(-1,0,0,1,1000,0) matrix(2,0,0,2,31.32,36.62) matrix(0.427557,0,0,0.427557,81.181313,139.3194)"/></g></g></g></g></g></g></svg>